<svg width="30" height="30" viewBox="0 0 30 30" fill="none" xmlns="http://www.w3.org/2000/svg">
<path fill-rule="evenodd" clip-rule="evenodd" d="M19.2977 15.6225C19.2977 13.4514 17.5372 11.6909 15.3661 11.6909C13.1951 11.6909 11.4346 13.4514 11.4346 15.6225C11.4346 17.7935 13.1951 19.5541 15.3661 19.5541C17.5372 19.5541 19.2977 17.7935 19.2977 15.6225Z" stroke="black" stroke-width="1.5" stroke-linecap="round" stroke-linejoin="round"/>
<path fill-rule="evenodd" clip-rule="evenodd" d="M15.3653 25.2501C25.4219 25.2501 26.6192 22.2369 26.6192 15.708C26.6192 11.1316 26.014 8.68296 22.2021 7.63033C21.8521 7.5198 21.464 7.30928 21.1495 6.96322C20.6416 6.40664 20.2705 4.69743 19.0442 4.18033C17.8179 3.66454 12.8929 3.68822 11.6863 4.18033C10.4811 4.67375 10.089 6.40664 9.58106 6.96322C9.26659 7.30928 8.87975 7.5198 8.52843 7.63033C4.71659 8.68296 4.11133 11.1316 4.11133 15.708C4.11133 22.2369 5.3087 25.2501 15.3653 25.2501Z" stroke="black" stroke-width="1.5" stroke-linecap="round" stroke-linejoin="round"/>
<path d="M21.5049 11.25H21.5161" stroke="black" stroke-width="1.5" stroke-linecap="round" stroke-linejoin="round"/>
</svg>
