<svg width="30" height="30" viewBox="0 0 30 30" fill="none" xmlns="http://www.w3.org/2000/svg">
<path d="M7.58789 20.574C7.58789 20.574 8.60289 18.5277 10.0804 18.5277C11.5579 18.5277 12.3129 20.2465 13.9504 20.2465C15.5866 20.2465 17.4229 15.9365 19.2779 15.9365C21.1304 15.9365 22.4629 18.9252 22.4629 18.9252" stroke="black" stroke-width="1.5" stroke-linecap="round" stroke-linejoin="round"/>
<path fill-rule="evenodd" clip-rule="evenodd" d="M12.674 11.3811C12.674 12.4561 11.8028 13.3286 10.7265 13.3286C9.65152 13.3286 8.78027 12.4561 8.78027 11.3811C8.78027 10.3061 9.65152 9.43364 10.7265 9.43364C11.8028 9.43489 12.674 10.3061 12.674 11.3811Z" stroke="black" stroke-width="1.5" stroke-linecap="round" stroke-linejoin="round"/>
<path fill-rule="evenodd" clip-rule="evenodd" d="M3.4375 15.0002C3.4375 23.6714 6.32875 26.5627 15 26.5627C23.6712 26.5627 26.5625 23.6714 26.5625 15.0002C26.5625 6.32895 23.6712 3.4377 15 3.4377C6.32875 3.4377 3.4375 6.32895 3.4375 15.0002Z" stroke="black" stroke-width="1.5" stroke-linecap="round" stroke-linejoin="round"/>
</svg>
